# xmcd CD database file
#
# Track frame offsets:
#	150
#	18271
#	39317
#	61032
#	81939
#	100366
#	118041
#	140369
#	163254
#	181012
#	203479
#
# Disc length: 2961 seconds
#
# Revision: 0
# Processed by: cddbd v1.5.1PL0 Copyright (c) Steve Scherf et al.
# Submitted via: CDex 1.51
#
DISCID=850b8f0b
DTITLE=Various Artist - Salsa Dura
DYEAR=2000
DGENRE=Salsa
TTITLE0=El Corazon Me Hace Clave
TTITLE1=La Corriente
TTITLE2=Guarda Tus Lagrimas
TTITLE3=El Piraguero
TTITLE4=Boricua, Rumbero, Salsero
TTITLE5=A Mi Suegro (Don Pedrito)
TTITLE6=Salsa Sudada
TTITLE7=Fuerza de Voluntad
TTITLE8=La Aguja
TTITLE9=Una Miradita
TTITLE10=Celia Cosa Violenta
EXTD=YEAR: 2000
EXTT0=
EXTT1=
EXTT2=
EXTT3=
EXTT4=
EXTT5=
EXTT6=
EXTT7=
EXTT8=
EXTT9=
EXTT10=
PLAYORDER=
